<svg width="74" height="72" viewBox="0 0 74 72" fill="none" xmlns="http://www.w3.org/2000/svg">
<rect x="0.797607" width="72" height="72" rx="36" fill="#E0EFDD"/>
<g style="mix-blend-mode:multiply" opacity="0.5">
<path fill-rule="evenodd" clip-rule="evenodd" d="M18.2562 48.3661C15.6388 48.9604 13.1335 49.9717 10.8359 51.3613C10.3225 51.6027 9.91614 52.0253 9.69459 52.5483C9.37866 53.5771 10.3738 54.4832 11.2466 55.0253C14.5559 57.0828 18.0232 58.8396 21.4826 60.5884C23.5084 61.6172 25.5817 62.6578 27.8011 62.915C30.0205 63.1722 32.2398 62.6499 34.4079 62.092C41.8512 60.1759 49.1861 57.8592 56.3805 55.1519C58.1734 54.5464 59.8886 53.7309 61.4906 52.7224C62.5174 52.03 64.4801 51.4761 63.9311 50.3246C63.6073 49.652 57.8417 47.2423 57.3164 46.7636C53.8847 43.5982 57.0479 43.8316 53.1462 43.3964" fill="url(#paint0_linear_2078_20992)"/>
</g>
<path fill-rule="evenodd" clip-rule="evenodd" d="M62.2163 39.4578C62.5954 38.0571 62.9903 36.6591 63.401 35.2637L56.423 36.3162L34.7505 41.9901L28.4043 43.8498L14.1877 36.514C14.4681 36.6604 14.7287 37.4161 14.9578 38.3618C15.3527 40.0276 15.6607 42.279 15.7989 42.8171C16.3491 44.9748 16.8994 47.1286 17.4496 49.2784C17.8445 50.8611 17.8801 52.9622 19.5308 53.7298C21.4184 54.62 23.2074 55.7635 25.0081 56.8121C27.0617 57.9991 29.6365 60.3138 32.1165 59.8706C34.5965 59.4275 37.2503 58.1336 39.7145 57.3502C42.492 56.4613 45.2695 55.5815 48.047 54.7111C51.2892 53.6902 54.5117 52.6456 57.742 51.6288C60.842 50.6475 60.6248 45.7807 61.2962 43.0387C61.5923 41.8516 61.9043 40.6646 62.2202 39.4776L62.2163 39.4578Z" fill="#00AA46"/>
<path fill-rule="evenodd" clip-rule="evenodd" d="M28.4714 35.9007C30.8409 36.2449 33.2103 35.7068 35.4929 34.9471C40.4055 33.313 45.2984 30.6264 50.4046 31.3505C53.2739 31.781 55.8933 33.2301 57.7854 35.4338L63.9499 33.7008L46.2936 25.3916C46.2936 25.3916 32.9813 29.4354 23.0612 32.5137C24.2763 34.3885 26.257 35.6285 28.4714 35.9007Z" fill="#005537"/>
<path fill-rule="evenodd" clip-rule="evenodd" d="M26.9826 43.1336L57.8485 34.8561C55.9376 32.7638 53.3581 31.4051 50.5546 31.0141C45.5116 30.3335 40.6819 32.8659 35.8206 34.409C33.5815 35.1252 31.216 35.6356 28.886 35.3111C26.7654 35.0144 24.6763 33.9104 23.539 32.118C18.1761 33.7007 13.8203 35.0302 13.1727 35.3072L26.9826 43.1336Z" fill="url(#paint1_linear_2078_20992)"/>
<path fill-rule="evenodd" clip-rule="evenodd" d="M19.2539 37.9703C26.1101 38.8694 29.9757 38.7923 36.5787 36.7358C40.4291 35.5092 44.4374 34.6624 48.193 36.7358C48.4136 36.8419 48.6089 36.9944 48.7656 37.1829C49.508 38.2235 47.028 38.8882 46.5107 39.4303C45.3654 40.6173 43.7858 41.4087 42.1943 42.0417C39.896 42.9558 27.1223 44.8756 24.662 45.2712" fill="#003D23"/>
<path fill-rule="evenodd" clip-rule="evenodd" d="M56.423 36.3162L34.7505 41.9901L28.4043 43.8498L14.1877 36.514C14.4681 36.6604 14.7287 37.4161 14.9578 38.3618L17.106 38.6348C18.5948 38.4924 19.8191 39.8654 20.4707 41.2581C21.1223 42.6509 21.5053 44.2455 22.5439 45.3573C23.5825 46.4692 25.1701 46.94 26.2087 48.0875C27.6896 49.7137 27.9305 52.5309 29.8852 53.4765C31.7097 54.3589 33.7988 52.982 35.1652 51.4467C37.7557 48.5306 39.7777 44.566 43.4582 43.5333C46.7596 42.6232 50.2506 44.467 53.631 43.9527C56.8179 43.47 59.3611 40.997 62.2163 39.4578C62.5954 38.0571 62.9903 36.6591 63.401 35.2637L56.423 36.3162Z" fill="url(#paint2_linear_2078_20992)"/>
<path fill-rule="evenodd" clip-rule="evenodd" d="M47.5575 27.9836L60.7829 33.0601L63.1287 32.4152C64.4121 32.0591 66.434 31.8217 65.5218 30.9868C63.409 29.2735 60.4591 28.4426 57.9435 27.4772C55.1792 26.4089 52.4148 25.3366 49.6505 24.2208C48.0708 23.5719 46.4912 23.2316 44.955 23.6075L31.2873 27.0617L21.229 29.3091C19.2545 29.7483 17.2799 29.9264 15.333 30.4408C14.3655 30.694 13.2874 30.8641 12.5055 31.513C11.9013 32.0156 11.9566 32.4231 12.5055 32.981C13.1294 33.6101 16.0833 35.5291 17.0311 35.2799L45.0893 27.8452C45.901 27.5852 46.7798 27.6345 47.5575 27.9836Z" fill="#007548"/>
<path fill-rule="evenodd" clip-rule="evenodd" d="M12.1934 32.5533C12.1934 32.5533 13.2755 36.5101 13.469 36.5773C13.6625 36.6446 27.9186 44.5976 28.1121 44.5976C29.3686 44.9418 30.6942 44.9418 31.9506 44.5976C34.0989 44.012 63.3852 35.2756 63.3852 35.2756L64.3607 34.9471L65.7034 31.5127C62.0347 32.5296 57.9355 33.8511 54.251 34.868C48.8013 36.3795 43.166 37.6377 37.8229 39.4539C35.37 40.3236 32.8194 40.8871 30.2288 41.1315C28.0016 41.3135 25.8849 39.8654 23.9498 38.9237L20.2219 37.0996L12.1934 32.5533Z" fill="#00AA46"/>
<path fill-rule="evenodd" clip-rule="evenodd" d="M47.4072 13.2486C46.566 12.9004 45.6459 12.6828 44.8008 12.3742C43.7938 12.0102 42.7907 11.6303 41.7876 11.2465C39.8631 10.5053 37.9439 9.7469 36.0299 8.97138C35.2401 8.6588 34.4503 8.34226 33.6802 8.01385C30.6473 6.71604 29.9128 9.20087 29.9641 9.78252C29.9443 9.9706 29.9443 10.1602 29.9641 10.3483C29.9641 10.3483 29.818 28.6166 29.9088 29.3407C29.9088 29.3407 29.9088 30.7968 30.6986 30.7137C31.8202 30.6029 31.6504 28.8065 31.6504 28.8065C31.7135 26.4325 31.7728 24.0466 31.8281 21.6488C31.8728 19.7601 31.911 17.8727 31.9426 15.9867C31.9584 15.169 31.9702 14.3486 31.9781 13.5256C31.9228 12.6623 31.9308 11.7961 32.0018 10.9339C32.0338 10.5958 32.1988 10.2844 32.4603 10.0683C32.7219 9.8523 33.0585 9.74946 33.3958 9.78252C33.4814 9.7903 33.566 9.8062 33.6486 9.83C34.8689 10.1465 35.9746 10.7796 37.1317 11.2663C38.2888 11.753 39.4656 12.2436 40.6345 12.7263C42.1904 13.3752 43.7464 14.0795 45.3457 14.6216C46.6529 15.0687 47.6323 15.9906 47.7902 17.3913C47.8344 18.0644 47.8132 18.7403 47.727 19.4093C47.3914 23.3264 46.9886 37.2146 46.9886 37.2146C46.9886 37.2146 46.8187 38.8923 47.7784 38.8487C48.9197 38.7973 48.8446 36.7279 48.8446 36.7279L50.1004 19.2708C50.2505 17.1974 50.1557 14.7364 48.1259 13.5849C47.8929 13.4742 47.652 13.3555 47.4072 13.2486Z" fill="#333333"/>
<path fill-rule="evenodd" clip-rule="evenodd" d="M30.7738 29.0439C30.6701 29.0595 30.5803 29.1244 30.5329 29.218C30.4893 29.3123 30.4664 29.4149 30.4658 29.5188C30.4572 29.6047 30.4737 29.6913 30.5132 29.768C30.5581 29.8361 30.6229 29.8886 30.6988 29.9184C30.7447 29.9395 30.7943 29.9516 30.8449 29.954C30.8914 29.9534 30.9372 29.9426 30.9791 29.9223C31.1749 29.8353 31.2844 29.624 31.2428 29.4135C31.2011 29.203 31.0195 29.0495 30.8054 29.0439" fill="#007548"/>
<path fill-rule="evenodd" clip-rule="evenodd" d="M47.9167 37.3099C47.703 37.2662 47.4945 37.4044 47.4509 37.6185C47.4073 37.8326 47.5451 38.0415 47.7588 38.0852C47.9725 38.129 48.1811 37.9909 48.2247 37.7768C48.2461 37.6726 48.2247 37.5642 48.1655 37.4761C48.1025 37.3917 48.0179 37.3261 47.9206 37.2861" fill="#00AA46"/>
<path fill-rule="evenodd" clip-rule="evenodd" d="M24.2527 44.512C24.184 44.4986 24.1579 44.6004 24.1646 44.6713C24.4951 48.1 25.0048 51.5091 25.6916 54.8845C25.7126 55.0644 25.7792 55.2361 25.8852 55.3829C25.7979 54.2852 25.6397 53.1942 25.4117 52.1169C25.3194 51.6845 25.2154 51.2531 25.1468 50.8184C25.0581 50.2545 25.0398 49.6799 24.9865 49.1127C24.8347 47.7084 24.6122 46.3127 24.3198 44.9309C24.2958 44.7892 24.2641 44.6489 24.2248 44.5106" fill="white"/>
<path fill-rule="evenodd" clip-rule="evenodd" d="M28.7164 45.3775L29.0204 52.8438C29.0309 53.6744 29.1088 54.5028 29.2534 55.3208C29.4154 55.2931 29.443 55.0794 29.439 54.9251L29.0204 45.5001C29.0204 45.3696 28.9138 45.1875 28.8072 45.2627" fill="white"/>
<path fill-rule="evenodd" clip-rule="evenodd" d="M33.7079 44.4157V50.153C33.7079 52.4321 33.7079 54.727 34.1581 56.9625C34.1147 54.8931 33.7632 52.8317 33.8817 50.7702C33.9054 50.3745 33.9449 49.9472 33.9607 49.5357C34.0041 48.0599 33.6843 46.5761 33.8778 45.1121C33.9133 44.847 33.9409 44.5186 33.7237 44.3643" fill="white"/>
<path fill-rule="evenodd" clip-rule="evenodd" d="M40.2634 42.6437C39.6829 44.6458 39.6987 46.7626 39.4539 48.836C39.3473 49.7302 39.1932 50.6205 39.0985 51.5186C38.976 52.7057 38.9682 53.9441 38.9642 55.1549C38.9515 55.3555 38.9688 55.5569 39.0155 55.7524C39.1577 53.588 39.5724 51.4474 39.7343 49.2831C39.7698 48.8399 39.7935 48.3928 39.8211 47.9457C39.939 46.2937 40.1699 44.6517 40.5122 43.0314C40.5674 42.8532 40.5756 42.6637 40.5359 42.4814" fill="white"/>
<path fill-rule="evenodd" clip-rule="evenodd" d="M19.1865 41.9494C19.2401 43.5877 19.7675 45.1667 20.0894 46.7766C20.2275 47.4711 20.3292 48.1743 20.4771 48.869C20.6746 49.7863 20.9704 50.7142 21.2623 51.6205C21.3016 51.7736 21.3636 51.9199 21.4462 52.0547C21.0254 50.4018 20.814 48.7003 20.408 47.0426C20.3266 46.7026 20.2354 46.3625 20.1472 46.0214C19.8329 44.7575 19.6057 43.4736 19.467 42.1787C19.4649 42.032 19.4248 41.8884 19.3508 41.7617" fill="white"/>
<path fill-rule="evenodd" clip-rule="evenodd" d="M45.259 41.1552C44.4233 45.0045 43.8794 48.9118 43.632 52.8434C43.5925 53.3794 43.5925 53.9177 43.632 54.4538C43.6216 54.5558 43.6669 54.6556 43.7504 54.7149C43.99 51.9795 44.2836 49.2506 44.6311 46.5284C44.8086 44.8575 45.1136 43.2027 45.5433 41.5785C45.5947 41.4044 45.6223 41.1829 45.4604 41.0879" fill="white"/>
<path fill-rule="evenodd" clip-rule="evenodd" d="M50.2231 39.7031C50.0217 40.4944 49.7413 41.2422 49.5399 42.0257C48.9555 44.285 49.0384 46.659 48.6672 48.9618C48.4843 49.849 48.3524 50.7461 48.2723 51.6485C48.2723 51.783 48.2723 51.9413 48.3986 52.0046C48.6079 50.8927 48.758 49.773 48.912 48.6532C49.2716 45.6814 49.7884 42.7308 50.4601 39.8138C50.4601 39.7466 50.4601 39.6477 50.4087 39.6318" fill="white"/>
<path fill-rule="evenodd" clip-rule="evenodd" d="M55.4792 38.1642C55.131 39.2352 54.8488 40.3267 54.6341 41.4324C54.0259 44.3604 53.556 47.3121 53.086 50.2639C53.0505 50.4815 53.0347 50.7426 53.2085 50.8772C53.3137 50.5169 53.3915 50.1492 53.4414 49.7772C54.0654 45.8838 54.8552 42.0193 55.8109 38.1839" fill="white"/>
<path fill-rule="evenodd" clip-rule="evenodd" d="M60.6681 36.5225C59.6302 41.0926 58.8393 45.7155 58.2986 50.3711C58.2593 50.5343 58.2862 50.7065 58.3736 50.8498C58.6501 49.6628 58.7686 48.4402 58.9423 47.2254C59.3961 43.7183 60.0368 40.238 60.8616 36.7994" fill="white"/>
<path fill-rule="evenodd" clip-rule="evenodd" d="M16.2799 44.1892L27.3659 51.316C28.0017 51.7671 28.6375 52.2142 29.2931 52.6296C29.2931 52.3091 29.0087 52.0678 28.7481 51.8778L16.0095 43.6484" fill="white"/>
<path fill-rule="evenodd" clip-rule="evenodd" d="M29.2533 52.1121C30.0431 51.8629 30.8526 51.6453 31.6622 51.4514C32.0966 51.3485 32.535 51.2535 32.9654 51.1467C35.1176 50.6125 37.1751 49.7539 39.3274 49.2198C39.3704 49.2119 39.4146 49.2119 39.4577 49.2198C39.5564 49.2475 39.5801 49.3899 39.5248 49.4809C39.4609 49.5625 39.3722 49.6208 39.2721 49.6471C38.3524 49.9563 37.4147 50.2086 36.4643 50.4028C33.9922 51.028 31.6346 52.1517 29.1032 52.4603" fill="white"/>
<path fill-rule="evenodd" clip-rule="evenodd" d="M39.6354 49.1956C42.4034 48.1249 45.2256 47.2004 48.0903 46.4259L48.8485 46.2043C48.9433 46.1766 49.0894 46.1845 49.0894 46.2834C49.0822 46.3255 49.0579 46.3628 49.0223 46.3863C48.7489 46.5802 48.4383 46.7149 48.1101 46.782C46.412 47.2884 44.7257 47.8345 43.0395 48.3844L41.7481 48.8118L39.2602 49.6031" fill="white"/>
<path fill-rule="evenodd" clip-rule="evenodd" d="M49.1607 46.0775C50.4046 45.6264 51.6249 45.116 52.857 44.6254C55.6135 43.5201 58.4055 42.5151 61.233 41.6104C61.2838 41.709 61.2646 41.8293 61.1856 41.9071C61.106 41.9793 61.0116 42.0333 60.9092 42.0654L51.5301 45.6818C50.7088 46.026 49.8609 46.3026 48.9948 46.5088" fill="white"/>
<mask id="mask0_2078_20992" style="mask-type:alpha" maskUnits="userSpaceOnUse" x="3" y="7" width="71" height="35">
<path d="M29.5294 41.2149C24.3917 41.2149 17.9922 35.8068 13.3052 33.1027L6.27465 30.1283L4.3665 24.3399L3.2265 20.9199L5.5065 17.4999H8.5465L15.3865 21.6799L22.2265 16.7399L23.7465 28.5199C31.408 26.5369 44.618 23.3682 46.5649 23.3682C47.2281 23.3682 52.3444 26.4939 56.029 25.8018C70.0901 -3.13143 82.2583 4.43994 65.4932 31.4803C53.8658 34.7252 34.6671 41.2149 29.5294 41.2149Z" fill="#C4C4C4"/>
</mask>
<g mask="url(#mask0_2078_20992)">
<path fill-rule="evenodd" clip-rule="evenodd" d="M40.8681 35.3968C40.3147 33.9062 38.6789 33.911 37.3758 34.8776C36.4114 35.6107 35.9033 36.7985 36.0389 38.0031C36.0899 38.7925 36.2963 39.5639 36.6464 40.2726C37.1196 41.0131 37.9928 41.3931 38.8566 41.2346C40.5005 41.0723 42.6392 39.9567 43.1328 38.247C43.492 37.0143 42.2487 34.518 40.8681 35.3968Z" fill="#FF6565"/>
<path fill-rule="evenodd" clip-rule="evenodd" d="M40.8839 35.4013C40.3304 33.9107 38.6946 33.9155 37.3994 34.8841C36.4323 35.6152 35.9235 36.8045 36.0624 38.0096C36.1063 38.8002 36.3132 39.5729 36.6699 40.2791C36.6699 40.2791 37.6108 40.6201 37.9673 38.7313C38.0178 38.2659 38.2331 37.8339 38.574 37.5135C38.9218 37.2441 39.3161 37.3062 39.707 37.191C40.0496 37.0809 40.3495 36.8664 40.5648 36.5774C40.8275 36.2456 40.9429 35.8204 40.8839 35.4013Z" fill="#CC3737"/>
<path fill-rule="evenodd" clip-rule="evenodd" d="M41.0662 35.1552C41.156 34.6115 41.0179 34.0551 40.6845 33.6175C40.3208 33.2704 39.8794 33.0155 39.3972 32.8741C39.6428 33.5851 40.0451 34.2313 40.5742 34.7647C40.0179 34.6178 39.5118 34.2488 38.9096 34.7199C38.8163 34.7877 38.7125 34.8947 38.7821 34.9803C38.831 35.0184 38.8932 35.0349 38.9545 35.0259L40.712 35.0364C40.3509 35.1224 40.0545 35.3798 39.918 35.7257C39.7678 36.0881 39.707 36.4814 39.7409 36.8721L41.0256 35.531C41.0437 35.9698 41.0995 36.4062 41.1923 36.8354C41.2901 37.0124 41.478 37.1203 41.68 37.1154C41.9821 36.4475 41.8236 35.9686 41.2146 35.228C42.1047 35.6343 43.1346 35.5948 43.9921 35.1215C44.0417 35.0925 44.0933 35.0558 44.0921 34.9966C44.0904 34.9567 44.0733 34.9191 44.0444 34.8916C43.6732 34.4719 43.1293 34.2477 42.5705 34.2838C42.0064 34.2943 41.4781 34.5635 41.137 35.0142" fill="#00AA46"/>
<path fill-rule="evenodd" clip-rule="evenodd" d="M59.7975 32.9003C56.9208 30.161 57.3995 28.2099 57.5725 24.8289L60.4366 18.8009C61.685 16.1778 63.0391 13.4142 65.703 12.0465C66.8238 11.4294 68.1286 11.2344 69.3809 11.4969C73.3589 12.4423 72.1101 19.687 69.1144 22.8221C68.971 22.8351 68.8284 22.857 68.6877 22.8878L67.3074 23.1605C67.0238 23.2275 66.7353 23.2712 66.4446 23.2912C65.7046 23.3015 64.9845 22.9768 64.2376 22.9585C63.4908 22.9402 62.6066 23.4245 62.6634 24.1685C62.7069 24.743 63.2696 25.1569 63.76 25.4336C64.6543 26.0184 65.4798 26.7023 66.2207 27.4723C66.2404 27.7828 66.2508 28.0924 66.2605 28.4114C66.1915 29.7388 65.7762 31.025 65.0559 32.1422C64.6068 32.9433 64.032 33.6671 63.3535 34.286L63.2466 34.1176C61.7935 35.0108 60.16 33.2499 59.7975 32.9003Z" fill="#FFB43D"/>
<path fill-rule="evenodd" clip-rule="evenodd" d="M63.3766 21.1342C62.6374 21.7365 61.9532 22.4032 61.3319 23.1266C59.6472 25.2813 60.7366 29.0997 57.8991 30.312C56.7797 30.8745 56.3835 31.1594 55.1315 31.1146C53.5447 31.669 61.0136 44.7694 54.5704 49.2946C55.5774 48.5796 56.4648 47.7097 57.1994 46.7169C58.2867 45.1729 59.2826 43.5666 60.182 41.9061C60.7702 41.0473 61.1734 40.0757 61.3662 39.0529C61.3802 38.6621 61.2659 38.2776 61.0406 37.958C60.7803 37.5657 60.6917 37.0842 60.7953 36.625C60.8989 36.1658 61.1858 35.769 61.5893 35.5265C63.0119 34.7335 64.1885 33.5639 64.9899 32.1461C65.7102 31.0289 66.1254 29.7426 66.1944 28.4152C66.246 27.6703 66.1254 26.9235 65.842 26.2327C65.6083 25.8007 65.0544 25.715 65.1874 25.1559C65.3203 24.5968 66.913 24.2491 67.4378 24.0235C71.4901 22.2903 73.9508 12.6251 69.3124 11.5286C68.3226 11.2927 67.5582 12.4423 67.061 13.3159C66.6055 14.2249 66.3408 15.2174 66.283 16.2325C66.2514 16.6873 66.1776 17.1381 66.0627 17.5793C65.5195 18.9933 64.5885 20.2255 63.3766 21.1342Z" fill="url(#paint3_linear_2078_20992)"/>
<path fill-rule="evenodd" clip-rule="evenodd" d="M61.6438 35.5496C61.236 35.7882 60.9455 36.1853 60.8415 36.6462C60.7375 37.107 60.8294 37.5904 61.0951 37.981C61.3121 38.3038 61.4227 38.6863 61.4114 39.0751C61.2192 40.0951 60.8162 41.0638 60.2281 41.919C59.3334 43.5837 58.3402 45.1936 57.2539 46.74C56.5132 47.7304 55.6232 48.5997 54.6156 49.3168C51.8769 51.2206 47.3594 51.3135 47.6824 46.748C47.771 45.7592 48.0454 44.796 48.4911 43.9089L57.571 24.8474C57.3609 28.2251 56.9193 30.1794 59.7961 32.9187C60.1585 33.2684 61.792 35.0292 63.2249 34.153L63.3319 34.3214C62.8199 34.7963 62.2532 35.2086 61.6438 35.5496Z" fill="#D1720B"/>
<path fill-rule="evenodd" clip-rule="evenodd" d="M62.6447 24.1667C62.5879 23.4226 63.4729 22.9291 64.219 22.9567C64.965 22.9842 65.686 23.2997 66.426 23.2893C66.7167 23.2693 67.0052 23.2256 67.2888 23.1586L68.6691 22.886C68.8098 22.8552 68.9523 22.8332 69.0958 22.8203C68.6428 23.3159 68.0959 23.7166 67.4868 23.9992C66.962 24.2248 65.3858 24.4897 65.2364 25.1316C65.0869 25.7735 65.6573 25.7764 65.9003 26.2092C66.0899 26.6032 66.1928 27.0333 66.202 27.4705C65.4612 26.7004 64.6357 26.0165 63.7414 25.4317C63.2263 25.1155 62.6882 24.7412 62.6447 24.1667Z" fill="url(#paint4_linear_2078_20992)"/>
<path fill-rule="evenodd" clip-rule="evenodd" d="M38.5638 39.0639L35.318 31.4097L27.1904 34.0747L23.932 35.0892L27.7187 43.4044C27.7165 43.4429 27.7145 43.4767 27.742 43.5122C28.0924 44.5921 29.8367 45.231 31.9 45.1289C32.9001 45.0816 33.885 44.8726 34.8154 44.5105C38.189 43.2076 39.0727 40.6321 38.5638 39.0639Z" fill="url(#paint5_linear_2078_20992)"/>
<path fill-rule="evenodd" clip-rule="evenodd" d="M30.5933 43.5558C30.3785 42.6209 31.4517 41.7709 31.2963 40.8251C31.1669 40.0208 30.2693 39.6255 29.5479 39.2309C28.8244 38.8295 28.1814 38.301 27.6506 37.6715C27.4792 37.4864 27.3515 37.2662 27.2768 37.0267C27.249 36.569 27.3191 36.1108 27.4827 35.6819C27.5778 35.1351 27.4679 34.5726 27.1734 34.0993L23.931 35.1124L27.678 43.4097L27.7011 43.5173C28.0496 44.5952 29.7804 45.2322 31.8383 45.1302C31.8064 45.0812 31.7715 45.034 31.734 44.9889C31.3357 44.5118 30.7298 44.1529 30.5933 43.5558Z" fill="url(#paint6_linear_2078_20992)"/>
<path d="M30.5147 36.0511C33.6682 35.0478 35.8176 32.9553 35.3155 31.3772C34.8135 29.7992 31.8501 29.3333 28.6966 30.3367C25.5431 31.34 23.3938 33.4326 23.8958 35.0106C24.3979 36.5886 27.3613 37.0545 30.5147 36.0511Z" fill="white"/>
<path d="M29.6965 33.8797C30.8014 33.5281 31.5546 32.7953 31.3788 32.2429C31.2031 31.6905 30.1649 31.5276 29.06 31.8791C27.9552 32.2307 27.202 32.9635 27.3778 33.5159C27.5535 34.0683 28.5917 34.2312 29.6965 33.8797Z" fill="#005537"/>
<path fill-rule="evenodd" clip-rule="evenodd" d="M20.8176 32.0538C20.8176 32.0538 19.0505 29.0451 16.9196 28.7559C14.7886 28.4666 13.7446 29.0981 13.6984 27.5677C13.6521 26.0373 11.1622 25.5399 10.3554 24.6635C9.54868 23.7871 6.3481 24.0728 6.17927 25.151C5.94925 26.5795 9.04425 26.6179 9.20452 27.8398C9.40259 29.2426 9.26947 31.8318 11.5158 31.6206C13.3852 31.4275 14.4244 30.0183 15.4899 31.1772C16.5554 32.3362 20.8176 32.0538 20.8176 32.0538Z" fill="#235339"/>
<path fill-rule="evenodd" clip-rule="evenodd" d="M21.1195 32.6101C20.7398 30.9836 22.5054 29.5429 22.478 27.8714C22.4863 27.716 22.4466 27.5618 22.3641 27.4297C21.9113 26.8447 20.7528 27.8857 20.2849 27.4396L20.2085 27.3451L20.1794 27.2451C20.0001 26.4966 20.0887 25.7092 20.4297 25.0203C20.7207 24.2785 21.0763 23.5169 21.0116 22.7214C20.9469 21.9258 20.2455 21.1232 19.4639 21.2751C19.0491 21.3937 18.6978 21.671 18.486 22.047C18.0703 22.6701 17.8404 23.4039 17.374 23.989C17.3352 24.0101 17.3111 24.0584 17.2748 24.0932C17.2195 24.1491 17.1605 24.2013 17.0982 24.2493C16.6209 24.629 15.8289 24.9376 15.4509 24.463C15.2838 24.2566 15.1999 24 15.0755 23.7705C14.6709 23.2096 13.7894 23.6221 13.2306 23.6383C12.9617 23.6506 12.6924 23.6273 12.4296 23.5692C12.3748 23.5609 12.3208 23.5481 12.2681 23.5309C11.757 23.3848 11.2996 23.092 10.9525 22.6887C10.3317 21.9884 9.8853 21.3042 9.31716 20.7011L9.06756 20.4538C8.7174 20.108 8.31845 19.8155 7.88351 19.5857C7.11478 19.187 6.15618 18.9013 5.43128 19.5562C4.08949 20.7872 5.42055 23.2419 6.60789 24.0327C6.82249 24.1549 7.04689 24.2589 7.27874 24.3435L7.32279 24.3599L7.79779 24.5504C9.06143 25.0281 10.6516 25.6911 10.3389 26.8373C10.2244 27.0887 10.082 27.3264 9.91427 27.5457C9.561 28.2004 9.94517 28.9738 10.5633 29.4189C10.6198 29.4613 10.6793 29.4997 10.7412 29.5338C10.8959 29.626 11.0635 29.6946 11.2383 29.7375C12.1931 29.9698 13.1982 29.6463 14.1536 29.4907C14.743 29.3769 15.3502 29.391 15.9341 29.532L16.1502 29.6062C16.4465 29.7079 16.7133 29.8815 16.9265 30.1115C17.1774 30.3983 17.3281 30.7595 17.5501 31.067C17.5986 31.1565 17.68 31.2232 17.7479 31.3021C17.8158 31.3811 17.8426 31.4119 17.8936 31.4597C18.7108 32.2348 19.9568 32.4854 21.1077 32.6718L21.1195 32.6101Z" fill="#00AA46"/>
<path fill-rule="evenodd" clip-rule="evenodd" d="M7.29937 24.3723L7.77437 24.5628C8.51729 24.4989 9.2526 24.3664 9.97093 24.1671C10.7197 25.0907 11.6814 25.8184 12.7732 26.2872C13.1767 26.4262 13.5952 26.517 14.0199 26.5575C14.2046 26.5832 14.3935 26.6167 14.5747 26.6544C13.6824 27.0376 11.2167 28.1782 10.5321 29.4354C10.5886 29.4779 10.6481 29.5163 10.71 29.5504C11.4653 28.1643 14.6057 26.8691 14.9437 26.7513C16.1137 27.0455 17.1792 27.6601 18.0208 28.526C17.2531 28.6632 16.5343 28.9974 15.9348 29.4961C15.9172 29.5099 15.9046 29.529 15.8991 29.5507L16.1151 29.6248C16.7145 29.1448 17.43 28.8315 18.1894 28.7165C18.3821 28.9318 18.5596 29.1602 18.7207 29.4C18.9627 29.7721 19.1555 30.0905 19.3172 30.3703L19.6105 30.8556C18.939 30.7422 18.2509 30.9112 17.709 31.3229C17.7406 31.3812 17.8036 31.4326 17.8547 31.4805C18.4071 31.0856 19.1018 30.9451 19.7649 31.094C20.0028 31.4546 20.2648 31.7986 20.5492 32.1236C20.568 32.1449 20.5944 32.1579 20.6227 32.1595C20.651 32.1612 20.6787 32.1515 20.6998 32.1326C20.7217 32.1124 20.7346 32.0842 20.7355 32.0543C20.7363 32.0245 20.7251 31.9955 20.7043 31.9741C20.4192 31.6515 20.1577 31.3087 19.9221 30.9484C19.4757 29.5695 20.1436 27.7626 20.2692 27.4478L20.1929 27.3533L20.1638 27.2533C20.1324 27.2533 20.1032 27.2691 20.0861 27.2954C19.6833 28.2775 19.5099 29.3392 19.5791 30.3994L19.4906 30.236C19.3345 29.9481 19.1322 29.64 18.886 29.26C18.7161 29.0043 18.5275 28.7617 18.3216 28.5341C18.311 28.5147 17.3691 27.037 17.2908 24.1597C17.285 24.1348 17.2726 24.112 17.2549 24.0936C17.1996 24.1495 17.1406 24.2017 17.0784 24.2497C17.0942 25.5541 17.3527 26.8445 17.8407 28.0549C17.0212 27.3227 16.0377 26.7992 14.9737 26.5287C14.8335 26.4184 13.1262 25.104 12.3726 23.5846C12.3179 23.5763 12.2639 23.5635 12.2112 23.5463C12.1712 23.5746 12.1559 23.6266 12.174 23.6722C12.7632 24.7358 13.5525 25.6755 14.4982 26.4391L14.0173 26.3676C13.6096 26.3268 13.2076 26.2409 12.8186 26.1115C11.7487 25.6473 10.8075 24.9291 10.0766 24.0192C9.87202 22.9042 9.60011 21.8026 9.26235 20.7204L9.01275 20.4731C8.98806 20.5 8.97824 20.5374 8.9865 20.573C9.32206 21.5931 9.59258 22.6335 9.79645 23.6878L9.64794 23.5066C8.48876 22.0121 7.05799 20.7502 5.43114 19.7875C5.40709 19.7723 5.37799 19.7674 5.35034 19.7739C5.32268 19.7803 5.29881 19.7977 5.28405 19.8219C5.26497 19.8548 5.26411 19.8952 5.28177 19.9289C5.28661 19.9462 5.29526 19.9621 5.30708 19.9756C6.91455 20.925 8.32812 22.1708 9.47283 23.6468L9.76529 23.9916C9.0951 24.1637 7.73116 24.4553 7.3862 24.3101C7.3862 24.3101 7.31752 24.2668 7.19819 24.3617" fill="#235339"/>
<path fill-rule="evenodd" clip-rule="evenodd" d="M27.4875 52.8677C27.882 52.2261 28.1093 51.4953 28.1485 50.7424L28.1451 50.6435C28.2932 49.8315 28.301 48.9998 28.168 48.1846L27.6656 44.8124C27.342 42.2872 26.8592 39.7849 26.2201 37.3202C25.8196 35.8963 25.2656 34.4298 24.1359 33.4767C23.0063 32.5237 21.1164 32.3454 20.1002 33.4451L20.0112 33.5588C19.8857 33.6989 19.7862 33.8603 19.7171 34.0354C19.5516 34.4162 19.4719 34.8289 19.4835 35.2444L19.4962 35.2677C19.4978 35.3725 19.5071 35.4732 19.5186 35.5777L19.5308 35.702L19.5748 35.95L19.621 36.1464L19.6508 36.2662L19.7417 36.5542L19.807 36.7302L19.885 36.8741L19.9778 37.0453L20.2015 37.4577C20.9491 38.6883 21.7459 39.852 22.5052 41.0764C22.6381 41.3214 22.7689 41.5626 22.8997 41.8038C23.7901 43.5108 24.2826 45.3731 25.1024 47.1537L25.2923 47.5038C25.771 48.4423 26.3831 49.3487 26.8481 50.2897C27.2793 51.0813 27.5123 51.9655 27.527 52.8664L27.4875 52.8677Z" fill="#FFB43B"/>
<path fill-rule="evenodd" clip-rule="evenodd" d="M28.1493 50.7716C28.1072 51.5241 27.8802 52.2541 27.4884 52.897C27.5315 50.7995 25.9624 49.073 25.0747 47.1581C24.1481 45.1435 23.6357 42.9849 22.4638 41.0832C21.7066 39.8628 20.9077 38.6952 20.1621 37.4684C19.579 36.5901 19.359 35.52 19.5484 34.4838C19.6527 34.0648 19.8949 33.3998 20.3696 33.3488C20.9022 33.3133 21.3851 33.6629 21.5188 34.1805C21.5419 34.4517 21.5452 34.7241 21.5288 34.9956C21.5577 35.9012 22.29 36.3347 22.7812 36.9997C23.6076 38.207 24.0629 39.6297 24.091 41.0919C24.2469 44.2141 26.2077 46.2367 26.5496 46.7561C27.3298 47.8986 28.2097 49.3545 28.1493 50.7716Z" fill="url(#paint7_linear_2078_20992)"/>
</g>
<defs>
<linearGradient id="paint0_linear_2078_20992" x1="51.5666" y1="53.4757" x2="-17.7704" y2="39.2226" gradientUnits="userSpaceOnUse">
<stop stop-color="#969696"/>
<stop offset="1" stop-color="white"/>
</linearGradient>
<linearGradient id="paint1_linear_2078_20992" x1="8.69837" y1="35.9445" x2="44.93" y2="52.8843" gradientUnits="userSpaceOnUse">
<stop stop-color="#003C1B"/>
<stop offset="0.99" stop-color="#005537"/>
</linearGradient>
<linearGradient id="paint2_linear_2078_20992" x1="54.4248" y1="39.4671" x2="41.3456" y2="63.0018" gradientUnits="userSpaceOnUse">
<stop stop-color="#00AA46"/>
<stop offset="0.2" stop-color="#009F44"/>
<stop offset="0.54" stop-color="#00823F"/>
<stop offset="0.99" stop-color="#005537"/>
</linearGradient>
<linearGradient id="paint3_linear_2078_20992" x1="66.649" y1="9.3693" x2="50.224" y2="28.0801" gradientUnits="userSpaceOnUse">
<stop stop-color="#FFB743"/>
<stop offset="1" stop-color="#FF883B"/>
</linearGradient>
<linearGradient id="paint4_linear_2078_20992" x1="69.7381" y1="25.3274" x2="62.5885" y2="24.7044" gradientUnits="userSpaceOnUse">
<stop stop-color="#FF8A3B"/>
<stop offset="1" stop-color="#FF7516"/>
</linearGradient>
<linearGradient id="paint5_linear_2078_20992" x1="18.3356" y1="42.4295" x2="41.0924" y2="35.2818" gradientUnits="userSpaceOnUse">
<stop stop-color="#D7D7D7"/>
<stop offset="0.02" stop-color="#D8D8D8"/>
<stop offset="0.32" stop-color="#E8E8E8"/>
<stop offset="0.56" stop-color="#EDEDED"/>
</linearGradient>
<linearGradient id="paint6_linear_2078_20992" x1="27.873" y1="40.4224" x2="27.6329" y2="53.419" gradientUnits="userSpaceOnUse">
<stop stop-color="#B5B5B5"/>
<stop offset="1" stop-color="#D8D8D8"/>
</linearGradient>
<linearGradient id="paint7_linear_2078_20992" x1="20.5565" y1="36.0917" x2="24.3793" y2="54.6742" gradientUnits="userSpaceOnUse">
<stop stop-color="#FF8A1A"/>
<stop offset="0.98" stop-color="#FFB43B"/>
</linearGradient>
</defs>
</svg>
