<svg width="75" height="75" viewBox="0 0 75 75" fill="none" xmlns="http://www.w3.org/2000/svg">
<rect x="1.77789" width="72" height="72" rx="36" fill="#E0EFDD"/>
<mask id="mask0_2078_20993" style="mask-type:alpha" maskUnits="userSpaceOnUse" x="5" y="3" width="64" height="72">
<path d="M68.8824 46.4779C68.8824 62.2084 54.9316 74.9605 37.7224 74.9605C20.5132 74.9605 5.22241 63.231 5.22241 47.5005C5.22241 31.77 30.2188 3.52051 47.428 3.52051C64.6372 3.52051 68.8824 30.7474 68.8824 46.4779Z" fill="#E0EFDD"/>
</mask>
<g mask="url(#mask0_2078_20993)">
<path d="M31.4268 41.7339L30.3223 42.8385C30.3223 42.8385 37.7053 45.4582 43.8694 47.7262C48.2014 49.3201 53.1663 47.7836 55.7267 43.943C52.7225 43.943 51.8608 41.1816 49.0995 41.1816C46.3381 41.1816 37.1336 41.3657 31.4268 41.7339Z" fill="#827E7E"/>
<path fill-rule="evenodd" clip-rule="evenodd" d="M49.3114 41.1897C52.8326 41.4502 54.2785 46.6581 55.9996 43.5752C57.3043 41.2381 58.0427 38.2589 57.3827 34.5548C56.3742 26.1136 55.9071 19.9619 57.9354 18.5389L31.5194 16.2997C31.5194 16.2997 28.7335 26.2504 31.7815 33.6914C35.5354 42.871 24.7988 45.1342 24.7988 45.1342C24.7988 45.1342 43.5758 41.182 49.0987 41.1821C49.1723 41.1821 49.2432 41.1846 49.3114 41.1897Z" fill="url(#paint0_linear_2078_20993)"/>
<path fill-rule="evenodd" clip-rule="evenodd" d="M35.3713 37.0255C35.3845 37.2419 35.663 37.305 35.8773 37.3213L49.0372 37.8279C49.7079 37.8605 50.3563 37.9994 51.0039 38.0081C51.1781 38.0195 51.5262 37.9771 51.5255 37.8469C51.1184 37.3354 50.4219 37.355 49.7692 37.3213L36.8005 36.6296C36.301 36.6194 35.4332 36.6165 35.3713 37.0255Z" fill="#00AA46"/>
<path fill-rule="evenodd" clip-rule="evenodd" d="M34.3606 32.4318C35.6626 32.458 36.9812 32.8089 38.2823 32.8171C38.9848 32.8475 39.6253 32.8666 40.333 32.857C40.9051 32.8491 41.4767 32.8997 42.0388 33.0079C42.3888 33.0703 42.8021 33.0969 42.8293 33.4898C42.8565 33.8827 38.6428 33.2261 36.4788 33.2316C35.8141 33.2154 35.1557 33.0953 34.5277 32.8757C34.4814 32.8626 34.4368 32.8442 34.3948 32.8208C34.2641 32.7368 34.1734 32.4447 34.3606 32.4318Z" fill="#00AA46"/>
<path fill-rule="evenodd" clip-rule="evenodd" d="M33.6627 28.5429C35.8732 28.4975 38.076 28.7567 40.2868 28.8705C40.5873 28.8929 40.8893 28.8699 41.1827 28.8023C41.797 28.6374 40.7863 28.3043 40.5539 28.2911C39.2691 28.2289 38.006 28.1664 36.7646 28.1037L34.8415 28.0173C34.4969 28.0046 34.1544 27.9156 33.8348 27.8975C33.6627 27.8767 33.4883 27.896 33.3251 27.954C32.875 28.191 33.4233 28.5339 33.6627 28.5429Z" fill="#00AA46"/>
<path fill-rule="evenodd" clip-rule="evenodd" d="M33.4359 23.8235L33.5516 23.8364C34.099 23.9174 34.6502 23.9695 35.203 23.9925L37.0492 24.1389L40.7017 24.4249C43.9028 24.6806 47.1052 24.9507 50.309 25.2352C50.6595 25.2633 51.2704 25.3386 51.2953 25.5623C51.2473 25.9964 42.214 24.9441 37.6558 24.926C36.7178 24.947 35.7794 24.8936 34.8496 24.7666C34.3493 24.7334 33.8571 24.6226 33.3905 24.4382C33.2412 24.3426 33.0161 23.995 33.346 23.8427L33.4359 23.8235Z" fill="#00AA46"/>
<path fill-rule="evenodd" clip-rule="evenodd" d="M33.5274 20.335C33.737 20.3922 33.9823 20.3951 34.1629 20.4307C34.5183 20.505 34.8776 20.5595 35.239 20.5938C35.6381 20.6168 36.0382 20.6144 36.4369 20.5868C36.7941 20.5785 37.1479 20.5992 37.5015 20.6018C37.6566 20.6116 37.8123 20.6088 37.9669 20.5932C38.5945 20.53 37.6945 20.1786 37.4779 20.1611L33.5178 19.7968C33.3012 19.7793 32.9986 19.8777 33.2054 20.1445C33.2904 20.2399 33.4029 20.3066 33.5274 20.335Z" fill="#00AA46"/>
<path fill-rule="evenodd" clip-rule="evenodd" d="M27.9256 41.5854C27.9256 41.5854 18.3563 40.6903 19.6253 51.2766C20.6338 59.7177 18.9797 74.5696 16.9514 75.9926L45.1047 78.8303C45.1047 78.8303 51.044 67.902 46.4904 52.7864C42.7365 43.6068 49.0994 41.1823 49.0994 41.1823L27.9256 41.5854Z" fill="url(#paint1_linear_2078_20993)"/>
<path fill-rule="evenodd" clip-rule="evenodd" d="M23.918 63.4423C27.7709 63.9053 31.4699 64.2145 35.3228 64.6775C35.9105 64.7746 36.5034 64.8373 37.0984 64.8654C37.4497 64.8772 38.0353 64.8751 38.1381 65.1983C38.0531 65.406 37.6414 65.3544 37.3772 65.3483C34.4334 65.3309 31.6987 64.7076 28.758 64.5018C27.9519 64.4446 27.1452 64.4345 26.348 64.3442C25.9254 64.3005 25.5059 64.2311 25.0917 64.1364C24.6901 64.0728 24.3013 63.9442 23.9407 63.7558C23.765 63.6613 23.6468 63.4403 23.918 63.4423Z" fill="#00AA46"/>
<path fill-rule="evenodd" clip-rule="evenodd" d="M23.8022 59.6896C23.8153 59.906 24.0939 59.9691 24.3082 59.9853L39.4736 60.7009C40.1443 60.7336 40.7927 60.8725 41.4403 60.8812C41.6145 60.8926 41.9626 60.8502 41.9619 60.72C41.5548 60.2085 40.8583 60.228 40.2055 60.1943L25.2313 59.2937C24.7318 59.2835 23.864 59.2806 23.8022 59.6896Z" fill="#00AA46"/>
<path fill-rule="evenodd" clip-rule="evenodd" d="M22.853 68.5222C22.8571 68.7559 23.1516 68.8405 23.3796 68.8708L39.5375 70.548C40.2521 70.6233 40.9379 70.8116 41.6289 70.8597C41.8144 70.8823 42.1879 70.8576 42.1932 70.7173C41.7822 70.1424 41.0377 70.1218 40.3423 70.0465L24.3971 68.1815C23.8643 68.1407 22.9379 68.0857 22.853 68.5222Z" fill="#00AA46"/>
<path fill-rule="evenodd" clip-rule="evenodd" d="M24.0417 55.1186C25.344 55.1319 26.6659 55.4698 27.9671 55.4651C28.6698 55.4886 29.3105 55.5013 30.018 55.4847C30.5901 55.4712 31.1621 55.5161 31.7252 55.6188C32.0759 55.6776 32.4894 55.7002 32.5205 56.0928C32.5516 56.4854 28.3315 55.8705 26.1677 55.8974C25.5029 55.8877 24.8434 55.7742 24.2132 55.5608C24.1668 55.5482 24.122 55.5302 24.0798 55.5072C23.9482 55.4245 23.8546 55.1333 24.0417 55.1186Z" fill="#00AA46"/>
<path fill-rule="evenodd" clip-rule="evenodd" d="M24.2994 52.0685C26.5102 52.0425 28.7107 52.3211 30.9203 52.4543C31.2206 52.4794 31.5228 52.459 31.8168 52.394C32.4325 52.2345 31.4248 51.8925 31.1925 51.8773C29.9083 51.8038 28.6458 51.7302 27.405 51.6565L25.4827 51.5533C25.1383 51.5375 24.7965 51.4456 24.4771 51.4247C24.3053 51.4023 24.1306 51.4201 23.9669 51.4766C23.5148 51.7097 24.0601 52.0574 24.2994 52.0685Z" fill="#00AA46"/>
<path fill-rule="evenodd" clip-rule="evenodd" d="M23.805 47.9489L23.9211 47.9565C24.4717 48.0119 25.0247 48.0383 25.578 48.0356L27.429 48.0961L31.0909 48.2121C34.3003 48.3187 37.5119 48.4396 40.7255 48.575C41.0768 48.5867 41.6906 48.6336 41.7258 48.8559C41.6981 49.2918 32.6256 48.6604 28.0716 48.8542C27.1355 48.9187 26.1957 48.909 25.2609 48.8253C24.7596 48.8154 24.2628 48.7276 23.7882 48.5651C23.6346 48.4765 23.3936 48.1397 23.716 47.9722L23.805 47.9489Z" fill="#00AA46"/>
<path fill-rule="evenodd" clip-rule="evenodd" d="M25.9867 45.1306C26.1991 45.1759 26.4443 45.165 26.6266 45.1904C26.9856 45.2446 27.3474 45.2787 27.7101 45.2927C28.1099 45.2932 28.5093 45.2683 28.9058 45.2182C29.262 45.1899 29.6163 45.1906 29.9695 45.1733C30.125 45.1744 30.2802 45.1628 30.4338 45.1386C31.0568 45.0402 30.1384 44.7399 29.9212 44.7347L25.9468 44.5938C25.7296 44.5885 25.433 44.7038 25.6545 44.9585C25.7447 45.0491 25.8608 45.1092 25.9867 45.1306Z" fill="#00AA46"/>
</g>
<path d="M0.624084 32.3847L1.03899 33.3558L21.3038 43.9732L21.3682 44.0092L21.3828 44.0072L21.8121 44.0977L23.3271 44.3981L25.0504 44.7521L23.8409 43.4125L22.3829 41.7791L1.76365 31.1279L1.22524 31.4394L1.01786 31.5569L0.624084 32.3847Z" fill="#FFB43B"/>
<path d="M0.624084 32.3847L1.03899 33.3558L21.3682 44.0092L21.8121 44.0977L21.5093 43.1333L0.624084 32.3847Z" fill="url(#paint2_linear_2078_20993)"/>
<path d="M21.9775 42.1918C22.1629 42.2411 22.6137 42.5446 22.6599 42.5011C22.7061 42.4576 22.5171 41.9991 22.3829 41.7791L1.76365 31.1279L1.01786 31.5569L21.9775 42.1918Z" fill="url(#paint3_linear_2078_20993)"/>
<path d="M21.3348 43.9836L25.0023 44.7285L22.3349 41.7556C22.0462 41.9606 21.7887 42.2062 21.5703 42.4849C21.3296 42.9451 21.2468 43.4717 21.3348 43.9836Z" fill="#F9D49D"/>
<path d="M23.3263 44.3977L25.0496 44.7517L23.8401 43.4121C23.6051 43.7033 23.4304 44.0383 23.3263 44.3977Z" fill="#235339"/>
<path fill-rule="evenodd" clip-rule="evenodd" d="M21.4798 38.8545L21.2924 32.0155C21.3142 30.9799 21.1466 29.9489 20.7979 28.9734C20.4609 27.9762 19.6182 27.234 18.5863 27.0256C16.8409 26.7942 15.4736 28.8059 15.6569 30.5545C15.8402 32.3031 17.0463 33.7643 18.1913 35.097L21.4284 38.8449" fill="#06A84B"/>
<path fill-rule="evenodd" clip-rule="evenodd" d="M21.7751 47.7603C21.3466 47.7395 20.9172 47.7551 20.4914 47.8069C20.0525 47.8341 19.6228 47.9441 19.2249 48.131C18.8239 48.3244 18.514 48.6665 18.3613 49.0847C18.2168 49.5125 18.3379 49.9853 18.6702 50.2913C18.8824 50.4495 19.1489 50.5169 19.4108 50.4784C19.6727 50.4399 19.9084 50.2987 20.066 50.0861C20.276 49.7893 20.2799 49.3956 20.3862 49.0469C20.5939 48.4029 21.1216 47.9133 21.7794 47.7542" fill="#06A84B"/>
<path fill-rule="evenodd" clip-rule="evenodd" d="M21.7543 45.5C20.2637 44.7458 18.5832 44.4496 16.9246 44.6488C16.341 44.7031 15.7901 44.9426 15.3524 45.3325C14.9203 45.75 14.8524 46.4184 15.1918 46.9142C15.5458 47.3304 16.193 47.3535 16.7235 47.1994C17.0097 47.1157 17.2821 46.9905 17.5321 46.8279C17.7974 46.6598 18.0378 46.4531 18.2985 46.2717C19.0212 45.7676 19.8704 45.4754 20.7503 45.4279C21.0865 45.4191 21.4228 45.4433 21.7543 45.5Z" fill="#00AA46"/>
<path fill-rule="evenodd" clip-rule="evenodd" d="M26.0732 42.6494C24.8312 40.6809 24.208 38.3777 24.2819 36.0302C24.2858 35.2066 24.5535 34.4006 25.0459 33.7301C25.5777 33.0631 26.5065 32.8672 27.2437 33.2664C27.8711 33.698 27.9835 34.5988 27.8331 35.3633C27.7512 35.7759 27.6095 36.1754 27.4123 36.5493C27.2095 36.9454 26.9495 37.3126 26.7274 37.7043C26.1101 38.7903 25.8055 40.021 25.8479 41.2576C25.8772 41.7287 25.9527 42.1948 26.0732 42.6494Z" fill="#00AA46"/>
<defs>
<linearGradient id="paint0_linear_2078_20993" x1="47.3387" y1="17.3003" x2="43.7165" y2="73.9163" gradientUnits="userSpaceOnUse">
<stop offset="0.14762" stop-color="white"/>
<stop offset="0.371201" stop-color="#DDDDDD"/>
<stop offset="0.49576" stop-color="#B1B1B1"/>
<stop offset="0.88" stop-color="#969696"/>
<stop offset="1" stop-color="#8C8C8C"/>
</linearGradient>
<linearGradient id="paint1_linear_2078_20993" x1="26.4099" y1="74.6287" x2="31.68" y2="-11.5045" gradientUnits="userSpaceOnUse">
<stop offset="0.25" stop-color="white"/>
<stop offset="0.43" stop-color="#DDDDDD"/>
<stop offset="0.69" stop-color="#B1B1B1"/>
<stop offset="0.88" stop-color="#969696"/>
<stop offset="1" stop-color="#8C8C8C"/>
</linearGradient>
<linearGradient id="paint2_linear_2078_20993" x1="-0.290838" y1="38.1399" x2="48.4494" y2="35.7535" gradientUnits="userSpaceOnUse">
<stop stop-color="#FFB743"/>
<stop offset="1" stop-color="#D98231"/>
</linearGradient>
<linearGradient id="paint3_linear_2078_20993" x1="-3.8314" y1="37.7961" x2="63.7387" y2="39.6339" gradientUnits="userSpaceOnUse">
<stop stop-color="#FFB743"/>
<stop offset="1" stop-color="#D98231"/>
</linearGradient>
</defs>
</svg>
