<svg width="73" height="73" viewBox="0 0 73 73" fill="none" xmlns="http://www.w3.org/2000/svg">
<rect x="0.797607" y="0.23439" width="72" height="72" rx="36" fill="#E0EFDD"/>
<path fill-rule="evenodd" clip-rule="evenodd" d="M20.4793 48.9077C18.4508 49.3682 16.5092 50.1519 14.7285 51.2287C14.3307 51.4158 14.0157 51.7433 13.844 52.1486C13.5992 52.9458 14.3704 53.6479 15.0468 54.068C17.6116 55.6623 20.2988 57.0237 22.9798 58.3789C24.5499 59.1761 26.1567 59.9825 27.8767 60.1818C29.5968 60.3811 31.3168 59.9763 32.9971 59.544C38.7658 58.0593 44.4503 56.264 50.0261 54.1661C51.4156 53.6969 52.7449 53.065 53.9865 52.2835C54.7822 51.7469 56.3033 51.3177 55.8779 50.4254C55.6269 49.9042 51.1585 48.0369 50.7514 47.6659C48.0918 45.213 50.5433 45.3939 47.5195 45.0567" fill="url(#paint0_linear_2077_20991)"/>
<path fill-rule="evenodd" clip-rule="evenodd" d="M55.3421 43.5606C55.6359 42.4752 55.942 41.3919 56.2603 40.3106L50.8523 41.1261L34.0559 45.5229L29.1375 46.964L18.1195 41.2795C18.3368 41.3929 18.5388 41.9785 18.7163 42.7113C19.0223 44.0022 19.2611 45.7468 19.3682 46.1638C19.7946 47.8358 20.2211 49.5048 20.6475 51.1707C20.9536 52.3972 20.9811 54.0253 22.2604 54.6201C23.7234 55.31 25.1098 56.1961 26.5054 57.0086C28.0969 57.9284 30.0924 59.7221 32.0145 59.3787C33.9365 59.0353 35.9932 58.0327 37.903 57.4256C40.0556 56.7367 42.2082 56.055 44.3608 55.3805C46.8735 54.5894 49.371 53.78 51.8745 52.992C54.277 52.2316 54.1087 48.4603 54.629 46.3355C54.8586 45.4156 55.1003 44.4958 55.3452 43.576L55.3421 43.5606Z" fill="#00AA46"/>
<path fill-rule="evenodd" clip-rule="evenodd" d="M29.1898 40.8038C31.0262 41.0705 32.8625 40.6535 34.6315 40.0648C38.4389 38.7985 42.2309 36.7166 46.1882 37.2777C48.412 37.6113 50.442 38.7343 51.9084 40.442L56.686 39.099L43.0022 32.6602C43.0022 32.6602 32.685 35.7937 24.9968 38.1792C25.9385 39.6319 27.4736 40.5928 29.1898 40.8038Z" fill="#005537"/>
<path fill-rule="evenodd" clip-rule="evenodd" d="M28.036 46.4093L51.9575 39.995C50.4765 38.3737 48.4773 37.3208 46.3046 37.0178C42.3962 36.4905 38.6532 38.4528 34.8856 39.6485C33.1502 40.2035 31.317 40.599 29.5112 40.3476C27.8677 40.1177 26.2487 39.2622 25.3672 37.8733C21.211 39.0997 17.8352 40.1299 17.3332 40.3446L28.036 46.4093Z" fill="url(#paint1_linear_2077_20991)"/>
<path fill-rule="evenodd" clip-rule="evenodd" d="M19.6409 42.8122C24.9545 43.5088 30.3558 43.0444 35.4732 41.4508C38.4573 40.5003 41.5637 39.8442 44.4743 41.4508C44.6454 41.5331 44.7967 41.6512 44.9181 41.7973C45.4935 42.6037 43.5715 43.1188 43.1705 43.5388C42.283 44.4587 41.0587 45.0719 39.8253 45.5625C38.0441 46.2707 26.7047 48.9352 24.7979 49.2418" fill="#003D23"/>
<path fill-rule="evenodd" clip-rule="evenodd" d="M50.8523 41.1261L34.0559 45.5229L29.1375 46.964L18.1195 41.2795C18.3368 41.3929 18.5388 41.9785 18.7163 42.7113L20.3812 42.9229C21.5351 42.8125 22.4838 43.8764 22.9888 44.9557C23.4938 46.035 23.7907 47.2706 24.5956 48.1322C25.4006 48.9938 26.6309 49.3587 27.4359 50.2478C28.5836 51.508 28.7703 53.6911 30.2852 54.4239C31.6992 55.1076 33.3183 54.0406 34.3772 52.8509C36.385 50.5912 37.952 47.519 40.8044 46.7187C43.3631 46.0135 46.0686 47.4423 48.6885 47.0437C51.1583 46.6697 53.1293 44.7534 55.3421 43.5606C55.6359 42.4752 55.942 41.3919 56.2603 40.3106L50.8523 41.1261Z" fill="url(#paint2_linear_2077_20991)"/>
<path fill-rule="evenodd" clip-rule="evenodd" d="M28.953 43.9467C28.953 43.9467 29.4396 44.0694 29.3998 44.8052L21.9207 42.6314L23.3101 40.8867L28.953 43.9467Z" fill="#C6C5C4"/>
<path fill-rule="evenodd" clip-rule="evenodd" d="M43.9812 34.6695L54.231 38.6033L56.049 38.1035C57.0437 37.8276 58.6107 37.6436 57.9037 36.9967C56.2663 35.669 53.98 35.0252 52.0305 34.277C49.8881 33.4492 47.7457 32.6183 45.6033 31.7536C44.379 31.2508 43.1548 30.9871 41.9643 31.2784L31.3716 33.9551L23.5763 35.6966C22.0461 36.037 20.5158 36.1749 19.0069 36.5735C18.2571 36.7698 17.4215 36.9016 16.8155 37.4045C16.3473 37.7938 16.3901 38.1097 16.8155 38.542C17.2991 39.0295 19.5884 40.5166 20.323 40.3234L42.0683 34.5622C42.6974 34.3607 43.3785 34.3989 43.9812 34.6695Z" fill="#007548"/>
<path fill-rule="evenodd" clip-rule="evenodd" d="M16.574 38.2107C16.574 38.2107 17.4126 41.2768 17.5625 41.3289C17.7125 41.3811 28.7612 47.5439 28.9111 47.5439C29.8849 47.8106 30.9122 47.8106 31.886 47.5439C33.551 47.0902 56.2481 40.3202 56.2481 40.3202L57.0041 40.0657L58.0447 37.4043C55.2014 38.1923 52.0246 39.2164 49.169 40.0044C44.9455 41.1756 40.578 42.1506 36.4371 43.558C34.536 44.232 32.5593 44.6686 30.5516 44.858C28.8254 44.9991 27.185 43.8769 25.6853 43.1471L22.7961 41.7337L16.574 38.2107Z" fill="#00AA46"/>
<path fill-rule="evenodd" clip-rule="evenodd" d="M43.865 23.2507C43.2131 22.9808 42.4999 22.8122 41.845 22.573C41.0645 22.291 40.2872 21.9966 39.5098 21.6992C38.0183 21.1248 36.5308 20.5371 35.0475 19.9362C34.4353 19.694 33.8232 19.4487 33.2264 19.1942C30.8759 18.1885 30.3066 20.114 30.3464 20.5647C30.3311 20.7105 30.3311 20.8574 30.3464 21.0032C30.3464 21.0032 30.2332 35.1594 30.3036 35.7205C30.3036 35.7205 30.3036 36.8488 30.9157 36.7845C31.7849 36.6986 31.6533 35.3066 31.6533 35.3066C31.7023 33.4669 31.7482 31.6181 31.791 29.76C31.8257 28.2964 31.8553 26.8339 31.8798 25.3724C31.892 24.7387 31.9012 24.103 31.9073 23.4653C31.8645 22.7963 31.8706 22.1251 31.9257 21.457C31.9505 21.195 32.0783 20.9536 32.281 20.7862C32.4837 20.6188 32.7446 20.5391 33.0061 20.5647C33.0724 20.5708 33.138 20.5831 33.2019 20.6015C34.1477 20.8468 35.0046 21.3374 35.9014 21.7145C36.7981 22.0917 37.7102 22.4719 38.6161 22.8459C39.8219 23.3488 41.0278 23.8945 42.2673 24.3146C43.2804 24.6611 44.0394 25.3755 44.1618 26.4609C44.196 26.9825 44.1796 27.5062 44.1129 28.0246C43.8527 31.06 43.5405 41.8221 43.5405 41.8221C43.5405 41.8221 43.4089 43.1221 44.1527 43.0884C45.0372 43.0485 44.979 41.4449 44.979 41.4449L45.9523 27.9173C46.0686 26.3106 45.9951 24.4035 44.422 23.5113C44.2414 23.4254 44.0547 23.3334 43.865 23.2507Z" fill="#333333"/>
<path fill-rule="evenodd" clip-rule="evenodd" d="M30.974 35.4902C30.8937 35.5023 30.8241 35.5526 30.7874 35.6252C30.7535 35.6982 30.7358 35.7777 30.7354 35.8582C30.7287 35.9248 30.7415 35.9919 30.7721 36.0513C30.8069 36.1041 30.8571 36.1448 30.9159 36.1679C30.9515 36.1842 30.99 36.1936 31.0291 36.1955C31.0652 36.195 31.1007 36.1866 31.1332 36.1709C31.2849 36.1035 31.3697 35.9398 31.3375 35.7766C31.3052 35.6135 31.1644 35.4946 30.9985 35.4902" fill="#007548"/>
<path fill-rule="evenodd" clip-rule="evenodd" d="M44.2601 41.8963C44.0945 41.8625 43.9329 41.9696 43.8991 42.1355C43.8653 42.3014 43.9722 42.4633 44.1377 42.4972C44.3033 42.5311 44.465 42.424 44.4988 42.2581C44.5154 42.1774 44.4988 42.0935 44.4529 42.0251C44.4041 41.9598 44.3385 41.9089 44.2632 41.8779" fill="#00AA46"/>
<path opacity="0.31" fill-rule="evenodd" clip-rule="evenodd" d="M20.816 51.9838C22.7013 53.1918 24.4397 54.5931 24.4428 54.5961C24.5254 54.6483 26.2271 52.6583 26.3648 52.4039C26.9053 51.3995 27.2609 50.3059 27.4146 49.1752C27.5431 48.2064 27.3779 47.2068 27.7421 46.2778C28.0298 45.548 28.4307 44.9103 29.3428 44.7692C29.0818 44.7062 28.8244 44.6294 28.5715 44.5393L22.7166 42.1385C22.7166 42.1385 20.2896 40.9427 19.4724 44.6251" fill="#7A7B7B"/>
<path fill-rule="evenodd" clip-rule="evenodd" d="M22.1016 40.1359C22.1016 40.1359 19.1267 38.0264 17.5352 41.7456C16.2651 44.7106 15.0867 46.7465 14.1502 46.8292L22.8636 53.1025C22.8636 53.1025 25.6671 50.3614 26.0772 47.3382C26.5853 43.6098 28.9542 43.9502 28.9542 43.9502L22.1016 40.1359Z" fill="#EDEDED"/>
<path fill-rule="evenodd" clip-rule="evenodd" d="M16.8096 46.3627C17.9878 47.2457 19.1445 48.0491 20.3227 48.9321C20.4974 49.0755 20.6803 49.2086 20.8705 49.3307C20.9837 49.4012 21.1765 49.5116 21.1489 49.6373C21.0816 49.6894 20.9562 49.5944 20.8705 49.5423C19.9065 48.9781 19.1262 48.2545 18.1989 47.629C17.945 47.4573 17.6818 47.3009 17.437 47.12C17.3064 47.0255 17.1818 46.9231 17.0636 46.8134C16.9437 46.7163 16.8404 46.6003 16.7576 46.47C16.7178 46.4056 16.7209 46.3106 16.8096 46.3627Z" fill="#00AA46"/>
<path fill-rule="evenodd" clip-rule="evenodd" d="M17.5471 45.2076C17.5104 45.2812 17.59 45.3548 17.6573 45.4007L22.5046 48.5128C22.7188 48.6508 22.9055 48.8195 23.1166 48.9452C23.1717 48.982 23.2941 49.0341 23.3186 48.9912C23.2819 48.7459 23.0493 48.6202 22.8412 48.4853L18.0918 45.3486C17.9296 45.2505 17.6451 45.0849 17.5471 45.2076Z" fill="#00AA46"/>
<path fill-rule="evenodd" clip-rule="evenodd" d="M18.2573 43.846C18.6826 44.0974 19.0529 44.4592 19.4813 44.7045C19.7078 44.8456 19.9159 44.9713 20.1515 45.1C20.3421 45.2041 20.5215 45.3274 20.6871 45.468C20.7911 45.5538 20.9227 45.6397 20.8584 45.7746C20.7942 45.9095 19.5242 44.9069 18.8081 44.5052C18.5915 44.3759 18.3963 44.2135 18.2297 44.0238C18.2169 44.0109 18.2056 43.9965 18.1961 43.9809C18.1685 43.9288 18.193 43.8153 18.2573 43.846Z" fill="#00AA46"/>
<path fill-rule="evenodd" clip-rule="evenodd" d="M19.0499 43.0606C19.7813 43.4714 20.4515 43.9804 21.1522 44.4434C21.2461 44.5086 21.3493 44.5592 21.4583 44.5936C21.6908 44.658 21.4246 44.3545 21.3511 44.3054C20.9431 44.0377 20.5422 43.774 20.1485 43.5144L19.5365 43.1158C19.4263 43.0453 19.3314 42.9502 19.2305 42.8828C19.1782 42.8428 19.1175 42.8155 19.053 42.803C18.8602 42.7938 18.9734 43.0115 19.0499 43.0606Z" fill="#00AA46"/>
<path fill-rule="evenodd" clip-rule="evenodd" d="M19.5397 41.4449L19.5764 41.4695C19.7468 41.5921 19.9236 41.7057 20.1059 41.8098L20.7026 42.1808L21.8838 42.9136C22.9182 43.5575 23.9504 44.2065 24.9807 44.8606C25.0939 44.9311 25.2867 45.0629 25.2561 45.1427C25.1643 45.2806 22.3031 43.3521 20.7699 42.5518C20.4501 42.3954 20.1431 42.214 19.8519 42.0091C19.689 41.9108 19.5424 41.7877 19.4173 41.6442C19.3837 41.586 19.3684 41.4296 19.5061 41.4357L19.5397 41.4449Z" fill="#00AA46"/>
<path fill-rule="evenodd" clip-rule="evenodd" d="M20.7914 40.933C20.8526 40.9882 20.9352 41.0312 20.9903 41.0741C21.098 41.16 21.2104 41.2398 21.3269 41.3132C21.4582 41.3892 21.5941 41.4568 21.7339 41.5156C21.8563 41.5739 21.9726 41.6413 22.0919 41.7026C22.1428 41.7325 22.196 41.7581 22.2511 41.7793C22.4745 41.8651 22.2296 41.5923 22.1593 41.5493L20.8801 40.7491C20.8097 40.7061 20.6904 40.6878 20.7149 40.8135C20.7273 40.8603 20.7541 40.9021 20.7914 40.933Z" fill="#00AA46"/>
<path fill-rule="evenodd" clip-rule="evenodd" d="M26.6736 47.6662C26.6215 47.6508 26.594 47.7275 26.594 47.7827C26.6004 50.4519 26.7465 53.119 27.0316 55.773C27.0347 55.9133 27.0737 56.0506 27.1448 56.1716C27.157 55.3183 27.1141 54.4652 27.0163 53.6175C26.9765 53.2771 26.9276 52.9368 26.9061 52.5965C26.8786 52.155 26.9061 51.7104 26.9061 51.2688C26.8908 50.1744 26.8204 49.0815 26.695 47.9942C26.6867 47.8832 26.6724 47.7726 26.6521 47.6631" fill="white"/>
<path fill-rule="evenodd" clip-rule="evenodd" d="M29.3797 48.1475L29.6154 53.9332C29.6235 54.5769 29.6838 55.2188 29.7959 55.8526C29.9214 55.8312 29.9428 55.6656 29.9397 55.546L29.6154 48.2425C29.6154 48.1414 29.5327 48.0003 29.4501 48.0586" fill="white"/>
<path fill-rule="evenodd" clip-rule="evenodd" d="M33.2478 47.4022V51.848C33.2478 53.6141 33.2478 55.3925 33.5967 57.1248C33.563 55.5212 33.2906 53.9238 33.3825 52.3263C33.4008 52.0197 33.4314 51.6886 33.4437 51.3697C33.4773 50.2261 33.2294 49.0763 33.3794 47.9418C33.4069 47.7364 33.4284 47.4819 33.26 47.3623" fill="white"/>
<path fill-rule="evenodd" clip-rule="evenodd" d="M38.3281 46.029C37.8782 47.5805 37.8905 49.2209 37.7007 50.8275C37.6181 51.5204 37.4987 52.2103 37.4253 52.9063C37.3304 53.8262 37.3243 54.7859 37.3213 55.7241C37.3114 55.8795 37.3248 56.0356 37.361 56.1871C37.4712 54.5099 37.7925 52.8511 37.918 51.174C37.9455 50.8306 37.9639 50.4841 37.9853 50.1376C38.0766 48.8575 38.2556 47.5851 38.5208 46.3295C38.5636 46.1914 38.5699 46.0446 38.5392 45.9033" fill="white"/>
<path fill-rule="evenodd" clip-rule="evenodd" d="M42.2 44.8764C41.5524 47.8593 41.1309 50.887 40.9392 53.9336C40.9086 54.349 40.9086 54.7661 40.9392 55.1815C40.9312 55.2606 40.9663 55.3379 41.031 55.3839C41.2167 53.2642 41.4441 51.1496 41.7134 49.0401C41.851 47.7454 42.0873 46.463 42.4203 45.2044C42.4601 45.0695 42.4815 44.8978 42.3561 44.8242" fill="white"/>
<path fill-rule="evenodd" clip-rule="evenodd" d="M46.0476 43.7505C45.8915 44.3637 45.6743 44.9432 45.5182 45.5503C45.0653 47.3011 45.1296 49.1407 44.8419 50.9252C44.7002 51.6127 44.598 52.3078 44.5359 53.0071C44.5359 53.1114 44.5359 53.234 44.6338 53.2831C44.796 52.4215 44.9123 51.5538 45.0316 50.6861C45.3103 48.3832 45.7107 46.0967 46.2312 43.8364C46.2312 43.7842 46.2312 43.7076 46.1914 43.6953" fill="white"/>
<path fill-rule="evenodd" clip-rule="evenodd" d="M50.1209 42.5586C49.8511 43.3886 49.6324 44.2344 49.466 45.0912C48.9948 47.3601 48.6306 49.6475 48.2664 51.9348C48.2389 52.1034 48.2267 52.3058 48.3613 52.41C48.4428 52.1309 48.5032 51.8459 48.5419 51.5576C49.0254 48.5406 49.6374 45.546 50.378 42.5739" fill="white"/>
<path fill-rule="evenodd" clip-rule="evenodd" d="M54.142 41.2861C53.3378 44.8276 52.7249 48.4099 52.3059 52.0175C52.2754 52.144 52.2963 52.2775 52.3641 52.3885C52.5783 51.4687 52.6701 50.5213 52.8047 49.58C53.1564 46.8623 53.6528 44.1654 54.292 41.5008" fill="white"/>
<path fill-rule="evenodd" clip-rule="evenodd" d="M24.9661 50.3427L28.3322 52.7496C28.8249 53.0991 29.3176 53.4456 29.8256 53.7675C29.8256 53.5192 29.6053 53.3321 29.4033 53.1849L25.1007 50.082" fill="white"/>
<path fill-rule="evenodd" clip-rule="evenodd" d="M29.7957 53.366C30.4079 53.1729 31.0353 53.0042 31.6627 52.854C31.9994 52.7743 32.3391 52.7007 32.6727 52.6179C34.3407 52.204 35.9352 51.5386 37.6033 51.1247C37.6367 51.1186 37.6709 51.1186 37.7043 51.1247C37.7808 51.1462 37.7991 51.2565 37.7563 51.3271C37.7068 51.3903 37.638 51.4355 37.5604 51.4558C36.8477 51.6954 36.121 51.891 35.3843 52.0415C33.4684 52.5259 31.6413 53.3967 29.6794 53.6358" fill="white"/>
<path fill-rule="evenodd" clip-rule="evenodd" d="M37.8418 51.1061C39.9871 50.2764 42.1743 49.56 44.3945 48.9598L44.9821 48.7881C45.0555 48.7666 45.1688 48.7728 45.1688 48.8494C45.1632 48.8821 45.1444 48.9109 45.1168 48.9291C44.9049 49.0794 44.6641 49.1838 44.4098 49.2357C43.0937 49.6282 41.7869 50.0513 40.48 50.4775L39.4792 50.8087L37.551 51.4219" fill="white"/>
<path fill-rule="evenodd" clip-rule="evenodd" d="M45.224 48.6902C46.1881 48.3406 47.1338 47.9451 48.0887 47.5649C50.225 46.7084 52.3888 45.9296 54.5802 45.2285C54.6196 45.305 54.6047 45.3982 54.5434 45.4585C54.4817 45.5144 54.4086 45.5563 54.3292 45.5811L47.0603 48.3836C46.4238 48.6503 45.7667 48.8646 45.0955 49.0244" fill="white"/>
<path fill-rule="evenodd" clip-rule="evenodd" d="M14.2755 26.09C16.6013 28.9721 18.8872 31.8236 21.1885 34.7241C21.2741 34.8315 21.3598 34.9817 21.2772 35.089C21.1364 35.1687 20.9712 34.9633 20.8824 34.8376C19.0463 32.6034 17.2602 30.3355 15.5241 28.0339C15.062 27.4207 14.6275 26.8504 14.196 26.2218C14.196 26.2218 14.1042 26.1084 14.1807 26.0563C14.1957 26.0404 14.2185 26.0349 14.239 26.0422C14.2596 26.0495 14.2739 26.0682 14.2755 26.09Z" fill="#00AA46"/>
<path fill-rule="evenodd" clip-rule="evenodd" d="M19.4508 22.0033C21.3879 25.3392 23.5331 28.5495 25.7548 31.7014C25.9445 31.9682 26.2015 32.4097 26.1465 32.5875C25.9751 32.7194 25.767 32.3944 25.6415 32.2196C23.4994 29.2731 21.3573 26.3051 19.7385 23.0213C19.6008 22.7453 19.4692 22.4632 19.3468 22.1781C19.3468 22.1781 19.2397 22.0033 19.3009 21.942C19.3621 21.8807 19.4508 22.0033 19.4508 22.0033Z" fill="#00AA46"/>
<path fill-rule="evenodd" clip-rule="evenodd" d="M34.5309 12.5408C34.5655 12.5787 34.586 12.6274 34.589 12.6788L34.8552 14.6073L35.1245 16.5267L35.2469 17.4128C35.2745 17.6029 35.299 17.793 35.3265 17.9862C35.3265 18.0751 35.3602 18.1671 35.3663 18.256C35.3663 18.2744 35.3663 18.2989 35.3479 18.3051C35.2775 18.3265 35.2102 18.1763 35.1888 18.1303C35.1393 17.9893 35.1005 17.8448 35.0725 17.698L34.9532 17.2411C34.8736 16.9345 34.8002 16.6279 34.7298 16.3213C34.5911 15.7075 34.4889 15.0861 34.4238 14.4602C34.3901 14.1536 34.3717 13.847 34.3656 13.5403V12.8474C34.3631 12.7714 34.3682 12.6954 34.3809 12.6205C34.3918 12.5838 34.4094 12.5495 34.4329 12.5193C34.4697 12.4703 34.5309 12.5408 34.5309 12.5408Z" fill="#00AA46"/>
<path fill-rule="evenodd" clip-rule="evenodd" d="M43.1701 12.2496C43.2129 12.3018 43.1701 12.4428 43.1486 12.5011C43.1242 12.6237 43.1089 12.7463 43.0874 12.869C43.0354 13.1756 42.9681 13.4638 42.8916 13.7582C42.7355 14.3468 42.5427 14.9263 42.3591 15.5058C42.2459 15.8523 42.1357 16.2018 42.0378 16.5544C41.6094 18.0875 40.8841 21.1536 40.7342 21.1536C40.5291 21.1168 40.7831 20.338 40.8872 19.9272L41.3584 18.1335C41.8511 16.2448 42.3377 14.3744 42.9742 12.5256C42.9987 12.452 43.0354 12.3876 43.0721 12.2864C43.0813 12.2496 43.1333 12.2128 43.1701 12.2496Z" fill="#00AA46"/>
<path fill-rule="evenodd" clip-rule="evenodd" d="M60.7409 17.8242C60.744 17.8446 60.744 17.8652 60.7409 17.8856C60.6806 18.0296 60.5933 18.1607 60.4838 18.2719C60.3675 18.416 60.2451 18.557 60.1227 18.695C59.8442 19.0016 59.5534 19.3082 59.2596 19.6148C59.1678 19.713 59.076 19.808 58.9811 19.9031C55.6063 23.3228 52.309 26.8182 49.0893 30.3892C48.8965 30.6007 48.5507 31.0269 48.4588 30.9656C48.3364 30.8123 48.7649 30.3708 48.9822 30.1163C51.2266 27.5101 53.5363 24.9601 55.9113 22.4663C57.359 20.9333 58.8311 19.4431 60.3002 17.9408C60.3767 17.8702 60.6338 17.6035 60.7287 17.7507C60.7401 17.7734 60.7444 17.799 60.7409 17.8242Z" fill="#00AA46"/>
<path fill-rule="evenodd" clip-rule="evenodd" d="M57.1419 29.4045C55.8728 30.3223 54.6414 31.2892 53.4478 32.3051C53.3008 32.4279 53.1608 32.5589 53.0285 32.6976C52.9489 32.7711 52.8724 32.8447 52.799 32.9244C52.7255 33.0042 52.6949 33.1697 52.8173 33.1452C52.949 33.1017 53.073 33.0375 53.1846 32.9551C53.4509 32.7957 53.7049 32.6209 53.9589 32.4461L54.0201 32.4032C54.4578 32.0966 54.8771 31.79 55.2872 31.4558C55.5045 31.2841 55.7157 31.1124 55.9299 30.9376L58.5896 28.7913L61.2614 26.6451L61.5675 26.4059C61.6134 26.3691 61.898 26.1974 61.7603 26.1729C61.709 26.1726 61.6585 26.1853 61.6134 26.2097C61.4353 26.2864 61.2642 26.3787 61.1023 26.4856C60.5453 26.8229 60.0158 27.2061 59.4955 27.5925C58.8834 28.0422 58.2855 28.5103 57.702 28.9968C57.4357 29.2175 57.1725 29.4413 56.9185 29.6774" fill="#00AA46"/>
<defs>
<linearGradient id="paint0_linear_2077_20991" x1="46.2952" y1="52.8672" x2="-7.44105" y2="41.8195" gradientUnits="userSpaceOnUse">
<stop stop-color="#969696"/>
<stop offset="1" stop-color="white"/>
</linearGradient>
<linearGradient id="paint1_linear_2077_20991" x1="13.8656" y1="40.8384" x2="41.9442" y2="53.9681" gradientUnits="userSpaceOnUse">
<stop stop-color="#003C1B"/>
<stop offset="0.99" stop-color="#005537"/>
</linearGradient>
<linearGradient id="paint2_linear_2077_20991" x1="49.3036" y1="43.5679" x2="39.1692" y2="61.8062" gradientUnits="userSpaceOnUse">
<stop stop-color="#00AA46"/>
<stop offset="0.2" stop-color="#009F44"/>
<stop offset="0.54" stop-color="#00823F"/>
<stop offset="0.99" stop-color="#005537"/>
</linearGradient>
</defs>
</svg>
